<svg width="24" height="22" viewBox="0 0 24 22" fill="none" xmlns="http://www.w3.org/2000/svg">
<path d="M6.42857 8.46161C7.61143 8.46161 8.57143 9.40931 8.57143 10.577V11.0001H15.4286V10.577C15.4286 9.40931 16.3886 8.46161 17.5714 8.46161C18.7543 8.46161 19.7143 9.40931 19.7143 10.577V11.0001H20.5714C21.5743 11.0001 22.4743 10.577 23.1 9.90009C23.6571 9.2993 24 8.49546 24 7.61545V5.92313C24 4.52698 22.8428 3.38464 21.4286 3.38464H18V2.53848C18 1.13914 16.8461 0 15.4286 0H8.57143C7.15392 0 6 1.13914 6 2.53848V3.38464H2.57143C1.15716 3.38464 0 4.52698 0 5.92313V7.61545C0 8.49546 0.342857 9.29932 0.899986 9.90009C1.52569 10.577 2.4257 11.0001 3.42857 11.0001H4.28571V10.577C4.28571 9.40931 5.24571 8.46161 6.42857 8.46161ZM7.71429 2.53848C7.71429 2.07203 8.09785 1.69232 8.57143 1.69232H15.4286C15.9022 1.69232 16.2857 2.07203 16.2857 2.53848V3.38464H7.71429V2.53848ZM19.7143 13.1154V12.6923H20.5714C21.5143 12.6923 22.3886 12.4469 23.1429 12.0069V19.4615C23.1429 20.8577 21.9857 22 20.5714 22H3.42857C2.0143 22 0.857143 20.8577 0.857143 19.4615V12.0069C1.61143 12.4469 2.48571 12.6923 3.42857 12.6923H4.28571V13.1154C4.28571 14.2831 5.24571 15.2308 6.42857 15.2308C7.61143 15.2308 8.57143 14.2831 8.57143 13.1154V12.6923H15.4286V13.1154C15.4286 14.2831 16.3886 15.2308 17.5714 15.2308C18.7543 15.2308 19.7143 14.2831 19.7143 13.1154ZM8.57143 12.6923H4.28571V11.0001H8.57143V12.6923ZM19.7143 11.0001V12.6923H15.4286V11.0001H19.7143Z" fill="white"/>
</svg>
