<svg width="24" height="19" viewBox="0 0 24 19" fill="none" xmlns="http://www.w3.org/2000/svg">
<path d="M16.921 7.60644L23.6925 1.38088C23.8929 1.75226 23.9979 2.16787 24 2.59104V16.409C23.9979 16.8786 23.8682 17.3385 23.6239 17.7379L16.921 7.60644ZM11.5489 9.38012V9.3812C11.851 9.56472 12.2346 9.54313 12.5142 9.32722L22.4271 0.204031C22.111 0.0690901 21.7714 0 21.4285 0H2.57157C2.22872 0 1.88907 0.0690899 1.57408 0.202953L11.5489 9.38012ZM0.311778 1.38199C0.11035 1.75336 0.00320911 2.1679 0 2.59106V16.4091C0.0021427 16.8786 0.131785 17.3385 0.37607 17.738L7.08092 7.6055L0.311778 1.38199ZM15.6395 8.78761L13.606 10.6573H13.6071C13.1389 11.0179 12.5678 11.2155 11.9785 11.2187C11.4299 11.2198 10.8953 11.0406 10.4571 10.7091L8.36246 8.78216L1.7078 18.8381C1.98422 18.9428 2.27672 18.9968 2.57135 19H21.4283C21.723 18.9968 22.0155 18.9428 22.2919 18.8381L15.6395 8.78761Z" fill="white"/>
</svg>
