<svg width="150" height="57" viewBox="0 0 150 57" fill="none" xmlns="http://www.w3.org/2000/svg">
<path d="M143.934 37.2889C141.882 37.2889 140.245 36.826 139.023 35.9001C137.816 34.9593 137.106 33.6377 136.895 31.9353H139.724C139.86 32.9209 140.305 33.69 141.06 34.2425C141.814 34.7801 142.803 35.0489 144.025 35.0489C145.036 35.0489 145.805 34.8697 146.334 34.5113C146.877 34.138 147.148 33.6228 147.148 32.9657C147.148 32.3833 146.982 31.9129 146.65 31.5545C146.318 31.1961 145.76 30.9049 144.976 30.6809L142.033 29.8073C140.539 29.3593 139.438 28.7694 138.729 28.0377C138.034 27.306 137.687 26.3876 137.687 25.2825C137.687 24.3566 137.929 23.5502 138.412 22.8633C138.894 22.1764 139.574 21.6462 140.449 21.2729C141.339 20.8996 142.373 20.7129 143.55 20.7129C145.36 20.7129 146.801 21.1534 147.873 22.0345C148.959 22.9006 149.578 24.0804 149.729 25.5737H146.899C146.733 24.6777 146.356 24.0206 145.768 23.6025C145.179 23.1694 144.387 22.9529 143.391 22.9529C142.516 22.9529 141.822 23.1246 141.309 23.4681C140.796 23.8116 140.539 24.282 140.539 24.8793C140.539 25.3721 140.69 25.7902 140.992 26.1337C141.309 26.4772 141.89 26.7758 142.735 27.0297L145.722 27.9257C147.216 28.3588 148.303 28.9486 148.982 29.6953C149.661 30.442 150 31.3902 150 32.5401C150 34.0633 149.465 35.2356 148.393 36.0569C147.337 36.8782 145.851 37.2889 143.934 37.2889Z" fill="white"/>
<path d="M115.473 37.086V20.958H120.045L125.025 36.5036H123.418L128.397 20.958H132.992V37.086H130.095V21.9212H130.57L125.726 37.086H122.58L117.782 22.0556H118.234V37.086H115.473Z" fill="white"/>
<path d="M103.274 37.3104C102.097 37.3104 101.011 37.1088 100.015 36.7056C99.0192 36.3024 98.1515 35.7274 97.4121 34.9808C96.6878 34.2341 96.122 33.353 95.7146 32.3376C95.3223 31.3072 95.1261 30.1797 95.1261 28.9552C95.1261 27.3274 95.4732 25.9013 96.1673 24.6768C96.8614 23.4373 97.8196 22.4741 99.0418 21.7872C100.279 21.0853 101.682 20.7344 103.252 20.7344C104.851 20.7344 106.262 21.0853 107.484 21.7872C108.722 22.4741 109.687 23.4373 110.381 24.6768C111.076 25.9162 111.423 27.3498 111.423 28.9776C111.423 30.2021 111.219 31.3221 110.812 32.3376C110.419 33.353 109.853 34.2341 109.114 34.9808C108.39 35.7274 107.53 36.3024 106.534 36.7056C105.538 37.1088 104.451 37.3104 103.274 37.3104ZM103.252 34.936C104.278 34.936 105.176 34.6821 105.945 34.1744C106.73 33.6666 107.341 32.9648 107.779 32.0688C108.216 31.1578 108.435 30.1125 108.435 28.9328C108.435 27.768 108.216 26.7525 107.779 25.8864C107.356 25.0053 106.752 24.3258 105.968 23.848C105.198 23.3552 104.293 23.1088 103.252 23.1088C102.226 23.1088 101.32 23.3552 100.536 23.848C99.7661 24.3258 99.1701 24.9978 98.7476 25.864C98.325 26.7301 98.1138 27.753 98.1138 28.9328C98.1138 30.1274 98.325 31.1728 98.7476 32.0688C99.1851 32.9648 99.7887 33.6666 100.558 34.1744C101.343 34.6821 102.241 34.936 103.252 34.936Z" fill="white"/>
<path d="M84.7065 37.086V23.2652H79.297V20.958H93.0585V23.2652H87.649V37.086H84.7065Z" fill="white"/>
<path d="M70.6455 37.2889C68.5934 37.2889 66.9562 36.826 65.7339 35.9001C64.5268 34.9593 63.8176 33.6377 63.6063 31.9353H66.4356C66.5714 32.9209 67.0165 33.69 67.771 34.2425C68.5255 34.7801 69.5138 35.0489 70.7361 35.0489C71.7471 35.0489 72.5166 34.8697 73.0447 34.5113C73.588 34.138 73.8596 33.6228 73.8596 32.9657C73.8596 32.3833 73.6936 31.9129 73.3616 31.5545C73.0297 31.1961 72.4713 30.9049 71.6867 30.6809L68.7443 29.8073C67.2504 29.3593 66.1489 28.7694 65.4397 28.0377C64.7456 27.306 64.3985 26.3876 64.3985 25.2825C64.3985 24.3566 64.6399 23.5502 65.1228 22.8633C65.6057 22.1764 66.2847 21.6462 67.1599 21.2729C68.0502 20.8996 69.0838 20.7129 70.2607 20.7129C72.0715 20.7129 73.5125 21.1534 74.5839 22.0345C75.6703 22.9006 76.289 24.0804 76.4399 25.5737H73.6106C73.4446 24.6777 73.0674 24.0206 72.4789 23.6025C71.8904 23.1694 71.0982 22.9529 70.1023 22.9529C69.2271 22.9529 68.533 23.1246 68.02 23.4681C67.5069 23.8116 67.2504 24.282 67.2504 24.8793C67.2504 25.3721 67.4013 25.7902 67.7031 26.1337C68.02 26.4772 68.6009 26.7758 69.4459 27.0297L72.4336 27.9257C73.9275 28.3588 75.0139 28.9486 75.6929 29.6953C76.372 30.442 76.7115 31.3902 76.7115 32.5401C76.7115 34.0633 76.1758 35.2356 75.1044 36.0569C74.0482 36.8782 72.5619 37.2889 70.6455 37.2889Z" fill="white"/>
<path d="M53.213 37.31C51.0099 37.31 49.3426 36.6903 48.2109 35.4508C47.0792 34.2113 46.5133 32.4343 46.5133 30.1196V20.958H49.4557V30.5452C49.4557 32.0236 49.7877 33.1287 50.4516 33.8604C51.1156 34.5772 52.0436 34.9356 53.2356 34.9356C54.4277 34.9356 55.3557 34.5772 56.0196 33.8604C56.6836 33.1287 57.0155 32.0311 57.0155 30.5676V20.958H59.958V30.142C59.958 32.4417 59.3846 34.2113 58.2378 35.4508C57.1061 36.6903 55.4311 37.31 53.213 37.31Z" fill="white"/>
<path d="M141.685 48.2872V46.8894H144.211C144.953 46.8894 145.587 46.7416 146.112 46.4459C146.637 46.1502 147.036 45.738 147.307 45.2094C147.588 44.6808 147.728 44.076 147.728 43.395C147.728 42.723 147.588 42.1316 147.307 41.6209C147.036 41.1102 146.637 40.716 146.112 40.4382C145.596 40.1515 144.962 40.0081 144.211 40.0081H141.712V38.6104H144.211C145.279 38.6104 146.212 38.8075 147.008 39.2017C147.805 39.596 148.421 40.156 148.855 40.8817C149.299 41.5985 149.521 42.4452 149.521 43.4219C149.521 44.3985 149.299 45.2542 148.855 45.9889C148.412 46.7147 147.792 47.2792 146.995 47.6824C146.207 48.0856 145.284 48.2872 144.224 48.2872H141.685ZM140.612 48.2872V38.6104H142.378V48.2872H140.612Z" fill="#ED7711"/>
<path d="M131.515 48.2872V38.6104H133.28V48.2872H131.515ZM132.357 48.2872V46.9028H138.55V48.2872H132.357ZM132.357 43.9864V42.6289H138.074V43.9864H132.357ZM132.357 39.9947V38.6104H138.4V39.9947H132.357Z" fill="#ED7711"/>
<path d="M126.114 48.4075C124.882 48.4075 123.9 48.1298 123.167 47.5742C122.442 47.0098 122.017 46.2168 121.89 45.1954H123.588C123.669 45.7867 123.936 46.2482 124.389 46.5797C124.842 46.9022 125.435 47.0635 126.168 47.0635C126.775 47.0635 127.236 46.956 127.553 46.741C127.879 46.517 128.042 46.2078 128.042 45.8136C128.042 45.4642 127.942 45.1819 127.743 44.9669C127.544 44.7518 127.209 44.5771 126.738 44.4427L124.973 43.9186C124.077 43.6498 123.416 43.2958 122.99 42.8568C122.574 42.4178 122.365 41.8667 122.365 41.2037C122.365 40.6482 122.51 40.1643 122.8 39.7522C123.09 39.34 123.497 39.0219 124.022 38.7979C124.556 38.5739 125.177 38.4619 125.883 38.4619C126.969 38.4619 127.834 38.7262 128.477 39.2549C129.129 39.7746 129.5 40.4824 129.59 41.3784H127.893C127.793 40.8408 127.567 40.4466 127.214 40.1957C126.861 39.9358 126.385 39.8059 125.788 39.8059C125.263 39.8059 124.846 39.909 124.538 40.115C124.231 40.3211 124.077 40.6034 124.077 40.9618C124.077 41.2574 124.167 41.5083 124.348 41.7144C124.538 41.9205 124.887 42.0997 125.394 42.252L127.187 42.7896C128.083 43.0494 128.735 43.4034 129.142 43.8514C129.55 44.2994 129.753 44.8683 129.753 45.5582C129.753 46.4722 129.432 47.1755 128.789 47.6683C128.155 48.1611 127.263 48.4075 126.114 48.4075Z" fill="#ED7711"/>
<path d="M118.333 48.2872V38.6104H120.099V48.2872H118.333Z" fill="#ED7711"/>
<path d="M105.589 48.2872V38.6104H108.332L111.32 47.9377H110.356L113.343 38.6104H116.1V48.2872H114.362V39.1883H114.647L111.741 48.2872H109.853L106.974 39.2689H107.246V48.2872H105.589Z" fill="#ED7711"/>
<path d="M98.8133 48.4222C98.1071 48.4222 97.4552 48.3012 96.8577 48.0593C96.2602 47.8174 95.7396 47.4724 95.2959 47.0244C94.8614 46.5764 94.5219 46.0478 94.2774 45.4385C94.042 44.8202 93.9243 44.1438 93.9243 43.409C93.9243 42.4324 94.1326 41.5767 94.549 40.842C94.9655 40.0983 95.5404 39.5204 96.2737 39.1082C97.0161 38.6871 97.8581 38.4766 98.7997 38.4766C99.7594 38.4766 100.606 38.6871 101.339 39.1082C102.082 39.5204 102.661 40.0983 103.078 40.842C103.494 41.5857 103.702 42.4458 103.702 43.4225C103.702 44.1572 103.58 44.8292 103.336 45.4385C103.1 46.0478 102.761 46.5764 102.317 47.0244C101.882 47.4724 101.366 47.8174 100.769 48.0593C100.171 48.3012 99.5195 48.4222 98.8133 48.4222ZM98.7997 46.9975C99.4153 46.9975 99.954 46.8452 100.416 46.5406C100.887 46.2359 101.253 45.8148 101.516 45.2772C101.778 44.7306 101.91 44.1034 101.91 43.3956C101.91 42.6967 101.778 42.0874 101.516 41.5678C101.262 41.0391 100.9 40.6314 100.429 40.3447C99.9676 40.049 99.4244 39.9012 98.7997 39.9012C98.1841 39.9012 97.6408 40.049 97.17 40.3447C96.7083 40.6314 96.3507 41.0346 96.0972 41.5543C95.8437 42.074 95.7169 42.6878 95.7169 43.3956C95.7169 44.1124 95.8437 44.7396 96.0972 45.2772C96.3597 45.8148 96.7219 46.2359 97.1836 46.5406C97.6544 46.8452 98.1931 46.9975 98.7997 46.9975Z" fill="#ED7711"/>
<path d="M88.2152 48.2872V39.9947H84.9695V38.6104H93.2264V39.9947H89.9807V48.2872H88.2152Z" fill="#ED7711"/>
<path d="M80.3222 48.4075C79.0909 48.4075 78.1085 48.1298 77.3752 47.5742C76.6509 47.0098 76.2254 46.2168 76.0986 45.1954H77.7962C77.8777 45.7867 78.1448 46.2482 78.5974 46.5797C79.0501 46.9022 79.6431 47.0635 80.3765 47.0635C80.9831 47.0635 81.4448 46.956 81.7617 46.741C82.0876 46.517 82.2506 46.2078 82.2506 45.8136C82.2506 45.4642 82.151 45.1819 81.9518 44.9669C81.7526 44.7518 81.4176 44.5771 80.9469 44.4427L79.1814 43.9186C78.2851 43.6498 77.6242 43.2958 77.1987 42.8568C76.7822 42.4178 76.5739 41.8667 76.5739 41.2037C76.5739 40.6482 76.7188 40.1643 77.0085 39.7522C77.2982 39.34 77.7057 39.0219 78.2308 38.7979C78.7649 38.5739 79.3851 38.4619 80.0913 38.4619C81.1777 38.4619 82.0423 38.7262 82.6852 39.2549C83.337 39.7746 83.7082 40.4824 83.7988 41.3784H82.1012C82.0016 40.8408 81.7753 40.4466 81.4222 40.1957C81.0691 39.9358 80.5938 39.8059 79.9962 39.8059C79.4711 39.8059 79.0546 39.909 78.7468 40.115C78.439 40.3211 78.2851 40.6034 78.2851 40.9618C78.2851 41.2574 78.3756 41.5083 78.5567 41.7144C78.7468 41.9205 79.0954 42.0997 79.6024 42.252L81.395 42.7896C82.2913 43.0494 82.9432 43.4034 83.3506 43.8514C83.758 44.2994 83.9617 44.8683 83.9617 45.5582C83.9617 46.4722 83.6403 47.1755 82.9975 47.6683C82.3638 48.1611 81.472 48.4075 80.3222 48.4075Z" fill="#ED7711"/>
<path d="M70.4056 48.4216C69.0837 48.4216 68.0833 48.0497 67.4043 47.306C66.7253 46.5624 66.3857 45.4961 66.3857 44.1073V38.6104H68.1512V44.3627C68.1512 45.2497 68.3504 45.9128 68.7487 46.3518C69.1471 46.7819 69.7039 46.9969 70.4191 46.9969C71.1344 46.9969 71.6912 46.7819 72.0895 46.3518C72.4879 45.9128 72.6871 45.2542 72.6871 44.3761V38.6104H74.4525V44.1208C74.4525 45.5006 74.1085 46.5624 73.4204 47.306C72.7414 48.0497 71.7364 48.4216 70.4056 48.4216Z" fill="#ED7711"/>
<path d="M42.1695 56.127C38.3609 56.127 34.8353 55.4459 31.5929 54.0837C28.4019 52.6711 25.6226 50.7288 23.2551 48.2567C20.8876 45.7342 19.0605 42.7828 17.7738 39.4026C16.4871 35.972 15.8438 32.2134 15.8438 28.127C15.8438 24.0405 16.4871 20.3071 17.7738 16.927C19.0605 13.4963 20.8619 10.545 23.1779 8.0729C25.5454 5.55038 28.3247 3.60803 31.5157 2.24587C34.7581 0.833259 38.2837 0.126953 42.0923 0.126953C46.2612 0.126953 49.9926 0.959385 53.2865 2.62425C56.6319 4.28911 59.3597 6.63506 61.4699 9.66209C63.6315 12.6891 64.9697 16.2206 65.4844 20.2567H59.1538C58.5362 15.7666 56.7091 12.2351 53.6725 9.66209C50.6874 7.03867 46.8531 5.72695 42.1695 5.72695C38.2065 5.72695 34.7324 6.68551 31.7473 8.60263C28.7621 10.4693 26.4461 13.0927 24.7991 16.4729C23.1522 19.8026 22.3287 23.6873 22.3287 28.127C22.3287 32.5666 23.1522 36.4765 24.7991 39.8567C26.4461 43.1864 28.7621 45.8098 31.7473 47.727C34.7324 49.5936 38.1807 50.527 42.0923 50.527C46.8788 50.527 50.7903 49.2152 53.8269 46.5918C56.915 43.9684 58.7421 40.4369 59.3082 35.9972H65.6388C65.1241 40.0333 63.7859 43.5648 61.6243 46.5918C59.5141 49.6188 56.7863 51.9648 53.4409 53.6297C50.147 55.2945 46.3898 56.127 42.1695 56.127Z" fill="#ED7711"/>
<path d="M19.7186 11.3271C18.5924 13.0255 17.6452 14.8912 16.8816 16.9271H11.8829C10.1854 17.5664 9.41653 17.7867 8.42148 18.5229C5.65853 20.8471 5.33913 22.4778 5.33913 24.4456C5.33915 26.5912 5.82668 28.3132 8.42148 30.3693C9.41641 31.1055 9.61953 31.4079 11.3171 32.0471L31.9707 32.3162V28.3131L43.0158 34.2871L31.9707 41.5671V37.564H11.3171C4.52687 36.2522 6.87737e-05 30.2573 0 24.4456C0.000326459 18.634 3.96097 12.639 11.3171 11.3271H19.7186Z" fill="white"/>
</svg>
