<svg width="24" height="25" viewBox="0 0 24 25" fill="none" xmlns="http://www.w3.org/2000/svg">
<path d="M17.348 19.576C18.1159 20.8404 17.7175 22.49 16.4577 23.2609L14.2463 24.6113V24.6102C13.8301 24.8648 13.3527 25 12.8652 25C12.4234 24.9989 11.9882 24.8917 11.5965 24.6861C8.11524 22.8555 5.19183 20.1146 3.13282 16.7548C1.08173 13.367 -0.00113203 9.48025 7.58928e-06 5.51602C-0.00221809 4.58337 0.485229 3.71773 1.28208 3.23744L3.49454 1.88704C4.75436 1.11747 6.39715 1.51732 7.16496 2.78059L8.55276 5.07032C9.32067 6.33471 8.92226 7.98346 7.66244 8.75406L6.51615 9.45326V9.45438C6.17449 9.6599 6.01201 10.0709 6.11996 10.4563C6.8812 12.9247 8.23894 15.1654 10.073 16.9791C10.3635 17.2583 10.8053 17.3041 11.1459 17.0885L12.291 16.3893C13.5508 15.6198 15.1936 16.0196 15.9615 17.2829L17.348 19.576ZM12.0807 8.84107C14.0249 9.14265 15.3571 10.9677 15.0577 12.918C15.0209 13.1525 15.0788 13.3915 15.219 13.5825C15.3581 13.7747 15.5685 13.902 15.8011 13.9377C15.8467 13.9444 15.8923 13.9478 15.9391 13.9478C16.3776 13.9478 16.7504 13.6261 16.8172 13.1905C17.0331 11.7865 16.6847 10.3524 15.8489 9.20511C15.0131 8.0569 13.7567 7.28956 12.3577 7.0695C12.124 7.03376 11.8859 7.09184 11.6955 7.23146C11.5052 7.3722 11.3772 7.58219 11.3416 7.81675C11.266 8.30484 11.5987 8.76057 12.0851 8.83651L12.0807 8.84107ZM12.892 3.53779C12.655 3.49199 12.409 3.54672 12.2109 3.68634C12.0139 3.82708 11.8826 4.04153 11.8459 4.28166C11.8092 4.5218 11.8715 4.76641 12.0195 4.95853C12.1664 5.15176 12.3845 5.27575 12.6249 5.30366C14.4924 5.59294 16.1686 6.61383 17.2845 8.14405C18.4008 9.67316 18.866 11.5853 18.5778 13.4585C18.5377 13.6953 18.5933 13.9388 18.7336 14.1331C18.8727 14.3275 19.0853 14.457 19.3212 14.4939C19.5582 14.5296 19.7986 14.4682 19.9901 14.3241C20.1815 14.18 20.3061 13.9645 20.3373 13.7266C20.6968 11.3855 20.1136 8.99516 18.7169 7.08509C17.3213 5.174 15.2257 3.89835 12.892 3.53779ZM13.4351 0.00588607C12.9588 -0.0488452 12.5258 0.284006 12.4535 0.758702C12.3823 1.23453 12.6972 1.68131 13.168 1.77066C15.967 2.20849 18.4789 3.74095 20.1527 6.03514C21.8265 8.32821 22.5254 11.1943 22.0959 14.0034C22.0558 14.2401 22.1114 14.4836 22.2517 14.678C22.3919 14.8723 22.6033 15.0019 22.8404 15.0388C23.0763 15.0745 23.3178 15.0131 23.5081 14.869C23.6996 14.7249 23.8253 14.5093 23.8565 14.2714C24.3562 10.9943 23.5393 7.65141 21.5862 4.97733C19.6341 2.30224 16.7037 0.514126 13.4384 0.00572873L13.4351 0.00588607Z" fill="white"/>
</svg>
