<svg width="97" height="108" viewBox="0 0 97 108" fill="none" xmlns="http://www.w3.org/2000/svg">
<path d="M43.2497 105.355H5.22666C3.78291 105.355 2.6208 104.182 2.6208 102.737V5.25201C2.6208 3.80125 3.78804 2.63351 5.22666 2.63351H57.6663V18.4527C57.6663 21.349 60.0111 23.7051 62.8934 23.7051H78.6363V56.629C78.6363 57.3543 79.225 57.9459 79.9469 57.9459C80.6687 57.9459 81.2575 57.3543 81.2575 56.629V22.3882C81.2575 22.2184 81.2165 22.0435 81.1551 21.8892C81.0885 21.7297 80.9964 21.5857 80.8684 21.4674L59.8988 0.396115C59.7811 0.277796 59.6377 0.169757 59.479 0.108031C59.3203 0.0411551 59.1463 0 58.9773 0H5.22706C2.34479 0 0 2.35616 0 5.2524V102.733C0 105.629 2.34479 107.986 5.22706 107.986L43.2501 107.991C43.972 107.991 44.5607 107.399 44.5607 106.674C44.5607 105.948 43.972 105.357 43.2501 105.357L43.2497 105.355ZM60.2875 18.4522V4.48989L76.7879 21.0703H62.893C61.4543 21.0703 60.2875 19.8978 60.2875 18.4522ZM92.9502 65.8467H56.4579C54.231 65.8467 52.4238 67.6627 52.4238 69.9004V103.946C52.4238 106.184 54.231 108 56.4579 108H92.9607C95.1877 108 96.9949 106.184 96.9949 103.946L97 69.9004C96.9846 67.6627 95.1772 65.8467 92.9502 65.8467ZM78.6359 68.4806V78.1983L75.2928 76.511C75.1085 76.4338 74.8986 76.3824 74.7041 76.3824C74.5095 76.3824 74.2996 76.4338 74.1153 76.5264L70.7722 78.1983V68.4807L78.6359 68.4806ZM94.3631 103.936C94.3631 104.712 93.7334 105.355 92.9501 105.355H56.4578C55.6745 105.355 55.0449 104.723 55.0449 103.936V69.9003C55.0449 69.1235 55.6746 68.4805 56.4578 68.4805H68.1508V80.3331C68.1508 80.7961 68.3863 81.2179 68.7652 81.4545C69.144 81.6912 69.6304 81.7169 70.0348 81.506L74.7038 79.1756L79.3575 81.5214C79.5418 81.5985 79.7517 81.65 79.9463 81.65C80.1817 81.65 80.4326 81.5831 80.6425 81.4545C81.0213 81.2179 81.2568 80.796 81.2568 80.333V68.4805H92.9499C93.7229 68.4805 94.3628 69.1132 94.3628 69.9003L94.3631 103.936ZM57.2876 39.8883C57.7995 40.4027 57.7995 41.2309 57.2876 41.7454L36.318 62.8167C36.0569 63.079 35.7292 63.2128 35.3862 63.2128C35.0432 63.2128 34.7156 63.079 34.4545 62.8321L23.9697 52.2965C23.4577 51.782 23.4577 50.9538 23.9697 50.4393C24.4816 49.9249 25.3058 49.9249 25.8179 50.4393L35.3863 60.0387L55.424 39.9038C55.936 39.374 56.7755 39.3738 57.2876 39.8883Z" fill="#434345"/>
</svg>
