<svg width="108" height="108" viewBox="0 0 108 108" fill="none" xmlns="http://www.w3.org/2000/svg">
<path d="M9.50771 79.668C9.87814 80.3008 9.65177 81.1034 9.01895 81.4739C8.80801 81.5922 8.58679 81.6437 8.36041 81.6437C7.89738 81.6437 7.46521 81.407 7.21312 80.9851C2.50048 72.81 0 63.4824 0 54.0007C0 39.6471 5.74168 25.9099 15.8563 15.8052H6.58527C5.85985 15.8052 5.26819 15.2135 5.26819 14.4881C5.26819 13.7627 5.85985 13.171 6.58527 13.171H19.7561C20.4815 13.171 21.0731 13.7627 21.0731 14.4881V27.659C21.0731 28.3844 20.4815 28.976 19.7561 28.976C19.0306 28.976 18.439 28.3844 18.439 27.659V16.9628C8.37571 26.6299 2.63403 40.0012 2.63403 54.0005C2.63403 63.0247 5.00593 71.8999 9.50771 79.668ZM79.7344 98.4668C71.9399 102.984 63.0496 105.366 54 105.366C39.9849 105.366 26.6192 99.6244 16.9624 89.5611H27.6585C28.3839 89.5611 28.9756 88.9694 28.9756 88.244C28.9756 87.5185 28.3839 86.9269 27.6585 86.9269H14.4877C13.7623 86.9269 13.1706 87.5185 13.1706 88.244V101.415C13.1706 102.14 13.7623 102.732 14.4877 102.732C15.2131 102.732 15.8048 102.14 15.8048 101.415V92.1541C25.8939 102.259 39.6308 108 54.0001 108C63.5079 108 72.8607 105.5 81.0516 100.756C81.6844 100.386 81.8954 99.583 81.525 98.9502C81.17 98.3173 80.3673 98.1067 79.7344 98.4668ZM28.2656 9.5332C36.0498 5.01599 44.9503 2.63391 54 2.63391C67.9992 2.63391 81.3808 8.37561 91.0481 18.4389H80.3417C79.6163 18.4389 79.0246 19.0306 79.0246 19.756C79.0246 20.4815 79.6163 21.0731 80.3417 21.0731H93.5125C94.2379 21.0731 94.8296 20.4815 94.8296 19.756V6.58517C94.8296 5.85974 94.2379 5.26808 93.5125 5.26808C92.7871 5.26808 92.1954 5.85974 92.1954 6.58517V15.8459C82.0909 5.74131 68.3537 0 54.0001 0C44.477 0 35.129 2.5159 26.9486 7.26966C26.3158 7.64009 26.1049 8.44268 26.4753 9.07551C26.8303 9.6929 27.6327 9.90363 28.2656 9.5332ZM101.415 92.1962H92.1542C102.259 82.107 108 68.3701 108 54.0007C108 44.5187 105.5 35.1914 100.782 27.0162C100.411 26.3834 99.6087 26.1724 98.9759 26.5274C98.3431 26.8979 98.1321 27.7005 98.4871 28.3333C102.994 36.102 105.366 44.9773 105.366 54.0007C105.366 68.0158 99.6242 81.3974 89.5609 91.049V80.3425C89.5609 79.6171 88.9692 79.0254 88.2438 79.0254C87.5184 79.0254 86.9267 79.6171 86.9267 80.3425V93.5134C86.9267 94.2388 87.5184 94.8305 88.2438 94.8305H101.415C102.14 94.8305 102.732 94.2388 102.732 93.5134C102.732 92.7879 102.14 92.1962 101.415 92.1962ZM81.6587 34.2852V73.7306C81.6587 76.653 79.2766 79.04 76.3493 79.04H31.6502C28.7227 79.0246 26.3408 76.6425 26.3408 73.7151V34.2841C26.3408 31.3618 28.7229 28.9747 31.6502 28.9747H76.3493C79.2767 28.9747 81.6587 31.3578 81.6587 34.2852ZM50.0487 31.6099V43.9627L53.4084 42.2753C53.5936 42.1981 53.8045 42.1467 54 42.1467C54.1955 42.1467 54.4065 42.1981 54.5917 42.2907L57.9513 43.9628V31.61L50.0487 31.6099ZM79.0245 34.2852C79.0245 32.8086 77.8258 31.6099 76.3493 31.6099H60.5851V46.0979C60.5851 46.5609 60.3485 46.9828 59.9677 47.2195C59.7568 47.3481 59.5047 47.415 59.268 47.415C59.0725 47.415 58.8616 47.3635 58.6764 47.2709L53.9997 44.9403L49.323 47.2863C48.9166 47.4818 48.4278 47.4715 48.0471 47.2349C47.6509 46.9828 47.4143 46.5609 47.4143 46.0978V31.6099H31.6501C30.1736 31.6099 28.9749 32.8087 28.9749 34.2852V73.7306C28.9749 75.2072 30.1736 76.4058 31.6501 76.4058H76.3637C77.8403 76.4058 79.0389 75.2071 79.0389 73.7306V34.2852L79.0245 34.2852Z" fill="#434345"/>
</svg>
