<svg aria-hidden="true" style="position: absolute; width: 0; height: 0; overflow: hidden;" version="1.1" xmlns="http://www.w3.org/2000/svg" xmlns:xlink="http://www.w3.org/1999/xlink">
<defs>
<symbol id="icon-logo-white" viewBox="0 0 84 32">
<path fill="#fff" style="fill: var(--color1, #fff)" d="M80.805 20.934c-1.152 0-2.071-0.26-2.757-0.78-0.678-0.528-1.076-1.27-1.195-2.226h1.588c0.076 0.553 0.326 0.985 0.75 1.295 0.423 0.302 0.979 0.453 1.665 0.453 0.568 0 0.999-0.101 1.296-0.302 0.305-0.21 0.457-0.499 0.457-0.868 0-0.327-0.093-0.591-0.28-0.792s-0.5-0.365-0.94-0.49l-1.652-0.49c-0.839-0.252-1.457-0.583-1.855-0.993-0.39-0.411-0.585-0.926-0.585-1.547 0-0.52 0.136-0.973 0.407-1.358s0.652-0.683 1.144-0.893c0.5-0.21 1.080-0.314 1.741-0.314 1.016 0 1.825 0.247 2.427 0.742 0.61 0.486 0.957 1.149 1.042 1.987h-1.589c-0.093-0.503-0.305-0.872-0.635-1.107-0.331-0.243-0.775-0.365-1.334-0.365-0.491 0-0.881 0.096-1.169 0.289s-0.432 0.457-0.432 0.792c0 0.277 0.085 0.511 0.254 0.704 0.178 0.193 0.504 0.36 0.979 0.503l1.677 0.503c0.839 0.243 1.449 0.574 1.83 0.993s0.572 0.952 0.572 1.597c0 0.855-0.3 1.513-0.902 1.974-0.593 0.461-1.427 0.692-2.503 0.692z"></path>
<path fill="#fff" style="fill: var(--color1, #fff)" d="M64.827 20.82v-9.054h2.567l2.796 8.727h-0.902l2.795-8.727h2.58v9.054h-1.626v-8.514h0.267l-2.719 8.514h-1.766l-2.694-8.438h0.254v8.438h-1.55z"></path>
<path fill="#fff" style="fill: var(--color1, #fff)" d="M57.978 20.946c-0.661 0-1.27-0.113-1.83-0.34s-1.046-0.549-1.461-0.968c-0.407-0.419-0.724-0.914-0.953-1.484-0.22-0.578-0.33-1.211-0.33-1.899 0-0.914 0.195-1.714 0.585-2.402 0.39-0.696 0.928-1.237 1.614-1.622 0.695-0.394 1.482-0.591 2.364-0.591 0.898 0 1.69 0.197 2.376 0.591 0.695 0.386 1.237 0.926 1.626 1.622s0.585 1.501 0.585 2.414c0 0.687-0.115 1.316-0.343 1.886-0.221 0.57-0.538 1.065-0.953 1.484-0.406 0.419-0.889 0.742-1.448 0.968s-1.169 0.34-1.83 0.34zM57.966 19.613c0.576 0 1.080-0.143 1.512-0.428 0.441-0.285 0.784-0.679 1.030-1.182 0.245-0.511 0.368-1.098 0.368-1.761 0-0.654-0.123-1.224-0.368-1.71-0.237-0.495-0.577-0.876-1.017-1.144-0.432-0.277-0.94-0.415-1.525-0.415-0.576 0-1.085 0.138-1.525 0.415-0.432 0.268-0.767 0.646-1.004 1.132s-0.356 1.060-0.356 1.723c0 0.671 0.119 1.258 0.356 1.761 0.246 0.503 0.584 0.897 1.016 1.182 0.441 0.285 0.945 0.428 1.512 0.428z"></path>
<path fill="#fff" style="fill: var(--color1, #fff)" d="M47.555 20.82v-7.759h-3.037v-1.295h7.726v1.295h-3.037v7.759h-1.652z"></path>
<path fill="#fff" style="fill: var(--color1, #fff)" d="M39.661 20.934c-1.152 0-2.071-0.26-2.757-0.78-0.678-0.528-1.076-1.27-1.194-2.226h1.588c0.076 0.553 0.326 0.985 0.75 1.295 0.424 0.302 0.978 0.453 1.665 0.453 0.568 0 1-0.101 1.296-0.302 0.305-0.21 0.458-0.499 0.458-0.868 0-0.327-0.093-0.591-0.28-0.792s-0.5-0.365-0.94-0.49l-1.652-0.49c-0.839-0.252-1.457-0.583-1.855-0.993-0.39-0.411-0.585-0.926-0.585-1.547 0-0.52 0.136-0.973 0.407-1.358s0.652-0.683 1.144-0.893c0.5-0.21 1.080-0.314 1.741-0.314 1.017 0 1.826 0.247 2.427 0.742 0.61 0.486 0.957 1.149 1.042 1.987h-1.588c-0.093-0.503-0.305-0.872-0.635-1.107-0.33-0.243-0.775-0.365-1.334-0.365-0.491 0-0.881 0.096-1.169 0.289s-0.432 0.457-0.432 0.792c0 0.277 0.085 0.511 0.254 0.704 0.178 0.193 0.504 0.36 0.978 0.503l1.677 0.503c0.839 0.243 1.449 0.574 1.83 0.993s0.572 0.952 0.572 1.597c0 0.855-0.301 1.513-0.902 1.974-0.593 0.461-1.427 0.692-2.503 0.692z"></path>
<path fill="#fff" style="fill: var(--color1, #fff)" d="M29.874 20.946c-1.237 0-2.173-0.348-2.808-1.044s-0.953-1.693-0.953-2.993v-5.143h1.652v5.382c0 0.83 0.186 1.45 0.559 1.861 0.373 0.402 0.894 0.604 1.563 0.604s1.19-0.201 1.563-0.604c0.373-0.411 0.559-1.027 0.559-1.849v-5.395h1.652v5.156c0 1.291-0.322 2.285-0.966 2.98-0.635 0.696-1.576 1.044-2.821 1.044z"></path>
<path fill="#ed7711" style="fill: var(--color2, #ed7711)" d="M79.542 27.109v-0.785h1.418c0.417 0 0.772-0.083 1.067-0.249s0.519-0.397 0.671-0.694c0.158-0.297 0.236-0.636 0.236-1.019 0-0.377-0.079-0.709-0.236-0.996-0.152-0.287-0.376-0.508-0.671-0.664-0.29-0.161-0.646-0.241-1.067-0.241h-1.403v-0.785h1.403c0.6 0 1.123 0.111 1.57 0.332s0.793 0.536 1.037 0.943c0.249 0.402 0.374 0.878 0.374 1.426s-0.125 1.029-0.374 1.441c-0.249 0.407-0.597 0.724-1.044 0.951-0.442 0.226-0.961 0.34-1.556 0.34h-1.425zM78.94 27.109v-5.433h0.991v5.433h-0.991z"></path>
<path fill="#ed7711" style="fill: var(--color2, #ed7711)" d="M73.833 27.109v-5.433h0.991v5.433h-0.991zM74.306 27.109v-0.777h3.477v0.777h-3.477zM74.306 24.694v-0.762h3.21v0.762h-3.21zM74.306 22.453v-0.777h3.393v0.777h-3.393z"></path>
<path fill="#ed7711" style="fill: var(--color2, #ed7711)" d="M70.801 27.176c-0.692 0-1.243-0.156-1.654-0.468-0.407-0.317-0.646-0.762-0.717-1.335h0.953c0.045 0.332 0.195 0.591 0.45 0.777 0.254 0.181 0.587 0.272 0.999 0.272 0.341 0 0.6-0.060 0.778-0.181 0.183-0.126 0.275-0.299 0.275-0.521 0-0.196-0.056-0.355-0.168-0.475s-0.3-0.219-0.564-0.294l-0.991-0.294c-0.503-0.151-0.874-0.35-1.113-0.596-0.234-0.246-0.351-0.556-0.351-0.928 0-0.312 0.081-0.584 0.244-0.815s0.391-0.41 0.686-0.536c0.3-0.126 0.648-0.189 1.045-0.189 0.61 0 1.095 0.148 1.456 0.445 0.366 0.292 0.574 0.689 0.625 1.192h-0.953c-0.056-0.302-0.183-0.523-0.381-0.664-0.198-0.146-0.465-0.219-0.801-0.219-0.295 0-0.529 0.058-0.702 0.174s-0.259 0.274-0.259 0.475c0 0.166 0.051 0.307 0.152 0.422 0.107 0.116 0.303 0.216 0.587 0.302l1.007 0.302c0.503 0.146 0.869 0.345 1.098 0.596s0.343 0.571 0.343 0.958c0 0.513-0.18 0.908-0.541 1.185-0.356 0.277-0.857 0.415-1.502 0.415z"></path>
<path fill="#ed7711" style="fill: var(--color2, #ed7711)" d="M66.433 27.109v-5.433h0.991v5.433h-0.991z"></path>
<path fill="#ed7711" style="fill: var(--color2, #ed7711)" d="M59.278 27.109v-5.433h1.54l1.677 5.236h-0.541l1.677-5.236h1.548v5.433h-0.976v-5.108h0.16l-1.631 5.108h-1.060l-1.616-5.063h0.153v5.063h-0.93z"></path>
<path fill="#ed7711" style="fill: var(--color2, #ed7711)" d="M55.474 27.184c-0.396 0-0.762-0.068-1.098-0.204s-0.628-0.329-0.877-0.581c-0.244-0.252-0.435-0.548-0.572-0.89-0.132-0.347-0.198-0.727-0.198-1.139 0-0.548 0.117-1.029 0.351-1.441 0.234-0.418 0.557-0.742 0.968-0.973 0.417-0.236 0.889-0.355 1.418-0.355 0.539 0 1.014 0.118 1.426 0.355 0.417 0.231 0.742 0.556 0.976 0.973s0.35 0.9 0.35 1.449c0 0.412-0.069 0.79-0.205 1.132-0.133 0.342-0.323 0.639-0.572 0.89-0.244 0.252-0.534 0.445-0.869 0.581s-0.701 0.204-1.098 0.204zM55.467 26.385c0.346 0 0.648-0.085 0.907-0.256 0.264-0.171 0.47-0.407 0.618-0.709 0.147-0.307 0.221-0.659 0.221-1.056 0-0.392-0.074-0.734-0.221-1.026-0.143-0.297-0.346-0.526-0.61-0.687-0.259-0.166-0.564-0.249-0.915-0.249-0.346 0-0.651 0.083-0.915 0.249-0.259 0.161-0.46 0.387-0.602 0.679s-0.214 0.636-0.214 1.034c0 0.402 0.071 0.755 0.214 1.056 0.147 0.302 0.351 0.538 0.61 0.709 0.264 0.171 0.567 0.256 0.907 0.256z"></path>
<path fill="#ed7711" style="fill: var(--color2, #ed7711)" d="M49.524 27.109v-4.655h-1.822v-0.777h4.635v0.777h-1.822v4.655h-0.991z"></path>
<path fill="#ed7711" style="fill: var(--color2, #ed7711)" d="M45.093 27.176c-0.691 0-1.243-0.156-1.654-0.468-0.407-0.317-0.645-0.762-0.717-1.335h0.953c0.046 0.332 0.196 0.591 0.45 0.777 0.254 0.181 0.587 0.272 0.999 0.272 0.341 0 0.6-0.060 0.778-0.181 0.183-0.126 0.274-0.299 0.274-0.521 0-0.196-0.056-0.355-0.168-0.475s-0.3-0.219-0.564-0.294l-0.991-0.294c-0.503-0.151-0.874-0.35-1.113-0.596-0.234-0.246-0.351-0.556-0.351-0.928 0-0.312 0.081-0.584 0.244-0.815s0.391-0.41 0.686-0.536c0.3-0.126 0.648-0.189 1.044-0.189 0.61 0 1.095 0.148 1.456 0.445 0.366 0.292 0.574 0.689 0.625 1.192h-0.953c-0.056-0.302-0.183-0.523-0.381-0.664-0.198-0.146-0.465-0.219-0.801-0.219-0.295 0-0.529 0.058-0.701 0.174s-0.259 0.274-0.259 0.475c0 0.166 0.051 0.307 0.152 0.422 0.107 0.116 0.302 0.216 0.587 0.302l1.006 0.302c0.503 0.146 0.869 0.345 1.098 0.596s0.343 0.571 0.343 0.958c0 0.513-0.18 0.908-0.541 1.185-0.356 0.277-0.856 0.415-1.502 0.415z"></path>
<path fill="#ed7711" style="fill: var(--color2, #ed7711)" d="M39.526 27.184c-0.742 0-1.304-0.209-1.685-0.626s-0.572-1.016-0.572-1.796v-3.086h0.991v3.229c0 0.498 0.112 0.87 0.335 1.117 0.224 0.241 0.536 0.362 0.938 0.362s0.714-0.121 0.938-0.362c0.224-0.246 0.336-0.616 0.336-1.109v-3.237h0.991v3.094c0 0.775-0.193 1.371-0.579 1.788-0.381 0.418-0.945 0.626-1.693 0.626z"></path>
<path fill="#ed7711" style="fill: var(--color2, #ed7711)" d="M23.674 31.51c-2.138 0-4.117-0.382-5.938-1.147-1.791-0.793-3.352-1.883-4.681-3.271-1.329-1.416-2.355-3.073-3.077-4.971-0.722-1.926-1.084-4.036-1.084-6.33s0.361-4.39 1.084-6.288c0.722-1.926 1.734-3.583 3.034-4.971 1.329-1.416 2.889-2.507 4.681-3.271 1.82-0.793 3.8-1.19 5.938-1.19 2.34 0 4.435 0.467 6.284 1.402 1.878 0.935 3.41 2.252 4.594 3.951 1.214 1.699 1.965 3.682 2.254 5.948h-3.554c-0.347-2.521-1.372-4.503-3.077-5.948-1.676-1.473-3.828-2.209-6.458-2.209-2.225 0-4.175 0.538-5.851 1.614-1.676 1.048-2.976 2.521-3.901 4.418-0.925 1.869-1.387 4.050-1.387 6.543s0.462 4.687 1.387 6.585c0.925 1.869 2.225 3.342 3.901 4.418 1.676 1.048 3.612 1.572 5.808 1.572 2.687 0 4.883-0.736 6.588-2.209 1.734-1.473 2.759-3.455 3.077-5.948h3.554c-0.289 2.266-1.040 4.248-2.254 5.948-1.185 1.699-2.716 3.016-4.594 3.951-1.849 0.935-3.959 1.402-6.328 1.402z"></path>
<path fill="#fff" style="fill: var(--color1, #fff)" d="M11.070 6.359c-0.632 0.954-1.164 2.001-1.593 3.144h-2.806c-0.953 0.359-1.385 0.483-1.943 0.896-1.551 1.305-1.73 2.22-1.73 3.325 0 1.205 0.274 2.171 1.73 3.326 0.559 0.413 0.673 0.583 1.626 0.942l11.595 0.151v-2.247l6.201 3.354-6.201 4.087v-2.247h-11.595c-3.812-0.736-6.353-4.102-6.353-7.365s2.224-6.628 6.353-7.365h4.717z"></path>
</symbol>
<symbol id="icon-menu" viewBox="0 0 37 32">
<path d="M2.743 0c-1.515 0-2.743 1.228-2.743 2.743s1.228 2.743 2.743 2.743h31.086c1.515 0 2.743-1.228 2.743-2.743s-1.228-2.743-2.743-2.743h-31.086zM2.743 13.257c-1.515 0-2.743 1.228-2.743 2.743s1.228 2.743 2.743 2.743h31.086c1.515 0 2.743-1.228 2.743-2.743s-1.228-2.743-2.743-2.743h-31.086zM2.743 26.514c-1.515 0-2.743 1.228-2.743 2.743s1.228 2.743 2.743 2.743h31.086c1.515 0 2.743-1.228 2.743-2.743s-1.228-2.743-2.743-2.743h-31.086z"></path>
</symbol>
<symbol id="icon-bag" viewBox="0 0 35 32">
<path fill="#fff" style="fill: var(--color1, #fff)" d="M9.351 12.308c1.721 0 3.117 1.378 3.117 3.077v0.615h9.974v-0.615c0-1.698 1.396-3.077 3.117-3.077s3.117 1.378 3.117 3.077v0.615h1.247c1.459 0 2.768-0.615 3.678-1.6 0.81-0.874 1.309-2.043 1.309-3.323v-2.462c0-2.031-1.683-3.692-3.74-3.692h-4.987v-1.231c0-2.035-1.678-3.692-3.74-3.692h-9.974c-2.062 0-3.74 1.657-3.74 3.692v1.231h-4.987c-2.057 0-3.74 1.662-3.74 3.692v2.462c0 1.28 0.499 2.449 1.309 3.323 0.91 0.985 2.219 1.6 3.678 1.6h1.247v-0.615c0-1.698 1.396-3.077 3.117-3.077zM11.221 3.692c0-0.678 0.558-1.231 1.247-1.231h9.974c0.689 0 1.247 0.552 1.247 1.231v1.231h-12.467v-1.231zM28.675 19.077v-0.615h1.247c1.372 0 2.643-0.357 3.74-0.997v10.843c0 2.031-1.683 3.692-3.74 3.692h-24.935c-2.057 0-3.74-1.662-3.74-3.692v-10.843c1.097 0.64 2.369 0.997 3.74 0.997h1.247v0.615c0 1.698 1.396 3.077 3.117 3.077s3.117-1.378 3.117-3.077v-0.615h9.974v0.615c0 1.698 1.396 3.077 3.117 3.077s3.117-1.378 3.117-3.077zM12.468 18.462h-6.234v-2.461h6.234v2.461zM28.675 16v2.461h-6.234v-2.461h6.234z"></path>
</symbol>
<symbol id="icon-email" viewBox="0 0 40 32">
<path fill="#fff" style="fill: var(--color1, #fff)" d="M28.499 12.811l11.405-10.485c0.338 0.625 0.514 1.325 0.518 2.038v23.272c-0.004 0.791-0.222 1.565-0.633 2.238l-11.289-17.064zM19.451 15.798v0.002c0.509 0.309 1.155 0.273 1.626-0.091l16.695-15.365c-0.532-0.227-1.104-0.344-1.682-0.344h-31.759c-0.577 0-1.149 0.116-1.68 0.342l16.8 15.456zM0.525 2.328c-0.339 0.625-0.52 1.324-0.525 2.036v23.273c0.004 0.791 0.222 1.565 0.633 2.238l11.292-17.065-11.401-10.482zM26.34 14.8l-3.423 3.149c-0.789 0.607-1.75 0.94-2.743 0.946-0.924 0.002-1.824-0.3-2.562-0.858l-3.528-3.245-11.208 16.936c0.466 0.176 0.958 0.267 1.454 0.273h31.759c0.496-0.005 0.989-0.096 1.454-0.273l-11.204-16.927z"></path>
</symbol>
<symbol id="icon-phone" viewBox="0 0 31 32">
<path fill="#fff" style="fill: var(--color1, #fff)" d="M22.205 25.057c0.983 1.618 0.473 3.73-1.14 4.717l-2.831 1.727c-0.533 0.326-1.144 0.499-1.768 0.499-0.566-0.001-1.123-0.139-1.624-0.402-4.456-2.343-8.198-5.852-10.834-10.152-2.625-4.336-4.011-9.311-4.010-14.386-0.003-1.194 0.621-2.302 1.641-2.917l2.832-1.728c1.613-0.985 3.715-0.473 4.698 1.144l1.776 2.931c0.983 1.618 0.473 3.729-1.14 4.715l-1.467 0.896c-0.437 0.263-0.645 0.789-0.507 1.282 0.974 3.16 2.712 6.028 5.060 8.349 0.372 0.357 0.937 0.416 1.373 0.14l1.466-0.895c1.613-0.985 3.715-0.473 4.698 1.144l1.775 2.935zM15.463 11.317c2.489 0.386 4.194 2.722 3.811 5.218-0.047 0.3 0.027 0.606 0.206 0.851 0.178 0.246 0.447 0.409 0.745 0.455 0.058 0.009 0.117 0.013 0.177 0.013 0.561 0 1.038-0.412 1.124-0.969 0.276-1.797-0.17-3.633-1.239-5.101-1.070-1.47-2.678-2.452-4.469-2.734-0.299-0.046-0.604 0.029-0.848 0.207-0.244 0.18-0.407 0.449-0.453 0.749-0.097 0.625 0.329 1.208 0.952 1.305l-0.006 0.006zM16.502 4.528c-0.303-0.059-0.618 0.011-0.872 0.19-0.252 0.18-0.42 0.455-0.467 0.762s0.033 0.62 0.222 0.866c0.188 0.247 0.467 0.406 0.775 0.442 2.39 0.37 4.536 1.677 5.964 3.636 1.429 1.957 2.024 4.405 1.655 6.802-0.051 0.303 0.020 0.615 0.199 0.863 0.178 0.249 0.45 0.415 0.752 0.462 0.303 0.046 0.611-0.033 0.856-0.217s0.404-0.46 0.444-0.765c0.46-2.997-0.286-6.056-2.074-8.501-1.786-2.446-4.469-4.079-7.456-4.541zM17.197 0.008c-0.61-0.070-1.164 0.356-1.256 0.964-0.091 0.609 0.312 1.181 0.915 1.295 3.583 0.56 6.798 2.522 8.94 5.459 2.142 2.935 3.037 6.604 2.487 10.199-0.051 0.303 0.020 0.615 0.199 0.863s0.45 0.415 0.754 0.462c0.302 0.046 0.611-0.033 0.855-0.217 0.245-0.184 0.406-0.46 0.446-0.765 0.64-4.195-0.406-8.474-2.906-11.896-2.499-3.424-6.25-5.713-10.429-6.364l-0.004 0z"></path>
</symbol>
<symbol id="icon-logo" viewBox="0 0 84 32">
<path fill="#5e340f" style="fill: var(--color3, #5e340f)" d="M80.805 20.934c-1.152 0-2.071-0.26-2.757-0.78-0.678-0.528-1.076-1.27-1.195-2.226h1.588c0.076 0.553 0.326 0.985 0.75 1.295 0.423 0.302 0.979 0.453 1.665 0.453 0.568 0 0.999-0.101 1.296-0.302 0.305-0.21 0.458-0.499 0.458-0.868 0-0.327-0.093-0.591-0.28-0.792s-0.5-0.365-0.94-0.49l-1.652-0.49c-0.839-0.252-1.457-0.583-1.855-0.993-0.39-0.411-0.584-0.926-0.584-1.547 0-0.52 0.136-0.973 0.407-1.358s0.652-0.683 1.144-0.893c0.5-0.21 1.080-0.314 1.74-0.314 1.017 0 1.826 0.247 2.427 0.742 0.61 0.486 0.957 1.149 1.042 1.987h-1.589c-0.093-0.503-0.305-0.872-0.635-1.107-0.331-0.243-0.775-0.365-1.334-0.365-0.491 0-0.881 0.096-1.169 0.289s-0.432 0.457-0.432 0.792c0 0.277 0.085 0.511 0.254 0.704 0.178 0.193 0.504 0.36 0.979 0.503l1.677 0.503c0.839 0.243 1.449 0.574 1.83 0.993s0.572 0.952 0.572 1.597c0 0.855-0.301 1.513-0.902 1.974-0.593 0.461-1.427 0.692-2.503 0.692z"></path>
<path fill="#5e340f" style="fill: var(--color3, #5e340f)" d="M64.827 20.82v-9.054h2.567l2.795 8.727h-0.902l2.796-8.727h2.58v9.054h-1.626v-8.514h0.267l-2.719 8.514h-1.766l-2.694-8.438h0.254v8.438h-1.55z"></path>
<path fill="#5e340f" style="fill: var(--color3, #5e340f)" d="M57.978 20.946c-0.661 0-1.27-0.113-1.83-0.34s-1.046-0.549-1.461-0.968c-0.407-0.419-0.724-0.914-0.953-1.484-0.22-0.578-0.33-1.211-0.33-1.899 0-0.914 0.195-1.714 0.584-2.402 0.39-0.696 0.928-1.237 1.614-1.622 0.695-0.394 1.482-0.591 2.364-0.591 0.898 0 1.69 0.197 2.376 0.591 0.695 0.386 1.237 0.926 1.626 1.622s0.585 1.501 0.585 2.414c0 0.687-0.115 1.316-0.344 1.886-0.22 0.57-0.538 1.065-0.953 1.484-0.406 0.419-0.89 0.742-1.448 0.968s-1.169 0.34-1.83 0.34zM57.966 19.613c0.576 0 1.080-0.143 1.512-0.428 0.441-0.285 0.784-0.679 1.029-1.182 0.246-0.511 0.369-1.098 0.369-1.761 0-0.654-0.123-1.224-0.369-1.71-0.237-0.495-0.576-0.876-1.016-1.144-0.432-0.277-0.94-0.415-1.525-0.415-0.576 0-1.085 0.138-1.525 0.415-0.432 0.268-0.767 0.646-1.004 1.132s-0.356 1.060-0.356 1.723c0 0.671 0.119 1.258 0.356 1.761 0.246 0.503 0.585 0.897 1.016 1.182 0.441 0.285 0.945 0.428 1.512 0.428z"></path>
<path fill="#5e340f" style="fill: var(--color3, #5e340f)" d="M47.554 20.82v-7.759h-3.037v-1.295h7.726v1.295h-3.037v7.759h-1.652z"></path>
<path fill="#5e340f" style="fill: var(--color3, #5e340f)" d="M39.661 20.934c-1.152 0-2.071-0.26-2.757-0.78-0.678-0.528-1.076-1.27-1.194-2.226h1.588c0.076 0.553 0.326 0.985 0.75 1.295 0.424 0.302 0.978 0.453 1.665 0.453 0.568 0 1-0.101 1.296-0.302 0.305-0.21 0.457-0.499 0.457-0.868 0-0.327-0.093-0.591-0.28-0.792s-0.5-0.365-0.94-0.49l-1.652-0.49c-0.839-0.252-1.457-0.583-1.855-0.993-0.39-0.411-0.585-0.926-0.585-1.547 0-0.52 0.136-0.973 0.407-1.358s0.652-0.683 1.144-0.893c0.5-0.21 1.080-0.314 1.741-0.314 1.017 0 1.826 0.247 2.427 0.742 0.61 0.486 0.957 1.149 1.042 1.987h-1.588c-0.093-0.503-0.305-0.872-0.635-1.107-0.33-0.243-0.775-0.365-1.334-0.365-0.491 0-0.881 0.096-1.169 0.289s-0.432 0.457-0.432 0.792c0 0.277 0.085 0.511 0.254 0.704 0.178 0.193 0.504 0.36 0.978 0.503l1.677 0.503c0.839 0.243 1.449 0.574 1.83 0.993s0.572 0.952 0.572 1.597c0 0.855-0.301 1.513-0.902 1.974-0.593 0.461-1.427 0.692-2.503 0.692z"></path>
<path fill="#5e340f" style="fill: var(--color3, #5e340f)" d="M29.874 20.946c-1.237 0-2.173-0.348-2.808-1.044s-0.953-1.693-0.953-2.993v-5.143h1.652v5.382c0 0.83 0.186 1.45 0.559 1.861 0.373 0.402 0.894 0.604 1.563 0.604s1.19-0.201 1.563-0.604c0.373-0.411 0.559-1.027 0.559-1.849v-5.395h1.652v5.156c0 1.291-0.322 2.285-0.966 2.98-0.635 0.696-1.576 1.044-2.821 1.044z"></path>
<path fill="#ed7711" style="fill: var(--color2, #ed7711)" d="M79.542 27.109v-0.785h1.418c0.417 0 0.772-0.083 1.067-0.249s0.519-0.397 0.671-0.694c0.158-0.297 0.236-0.636 0.236-1.019 0-0.377-0.079-0.709-0.236-0.996-0.152-0.287-0.376-0.508-0.671-0.664-0.29-0.161-0.646-0.241-1.067-0.241h-1.403v-0.785h1.403c0.6 0 1.123 0.111 1.57 0.332s0.793 0.536 1.037 0.943c0.249 0.402 0.374 0.878 0.374 1.426s-0.125 1.029-0.374 1.441c-0.249 0.407-0.597 0.724-1.044 0.951-0.442 0.226-0.961 0.34-1.556 0.34h-1.425zM78.94 27.109v-5.433h0.991v5.433h-0.991z"></path>
<path fill="#ed7711" style="fill: var(--color2, #ed7711)" d="M73.833 27.109v-5.433h0.991v5.433h-0.991zM74.306 27.109v-0.777h3.477v0.777h-3.477zM74.306 24.694v-0.762h3.21v0.762h-3.21zM74.306 22.453v-0.777h3.393v0.777h-3.393z"></path>
<path fill="#ed7711" style="fill: var(--color2, #ed7711)" d="M70.801 27.176c-0.692 0-1.243-0.156-1.654-0.468-0.407-0.317-0.646-0.762-0.717-1.335h0.953c0.045 0.332 0.195 0.591 0.45 0.777 0.254 0.181 0.587 0.272 0.999 0.272 0.341 0 0.6-0.060 0.778-0.181 0.183-0.126 0.275-0.299 0.275-0.521 0-0.196-0.056-0.355-0.168-0.475s-0.3-0.219-0.564-0.294l-0.991-0.294c-0.503-0.151-0.874-0.35-1.113-0.596-0.234-0.246-0.351-0.556-0.351-0.928 0-0.312 0.081-0.584 0.244-0.815s0.391-0.41 0.686-0.536c0.3-0.126 0.648-0.189 1.045-0.189 0.61 0 1.095 0.148 1.456 0.445 0.366 0.292 0.574 0.689 0.625 1.192h-0.953c-0.056-0.302-0.183-0.523-0.381-0.664-0.198-0.146-0.465-0.219-0.801-0.219-0.295 0-0.529 0.058-0.702 0.174s-0.259 0.274-0.259 0.475c0 0.166 0.051 0.307 0.152 0.422 0.107 0.116 0.303 0.216 0.587 0.302l1.007 0.302c0.503 0.146 0.869 0.345 1.098 0.596s0.343 0.571 0.343 0.958c0 0.513-0.18 0.908-0.541 1.185-0.356 0.277-0.857 0.415-1.502 0.415z"></path>
<path fill="#ed7711" style="fill: var(--color2, #ed7711)" d="M66.433 27.109v-5.433h0.991v5.433h-0.991z"></path>
<path fill="#ed7711" style="fill: var(--color2, #ed7711)" d="M59.278 27.109v-5.433h1.54l1.677 5.236h-0.541l1.677-5.236h1.548v5.433h-0.976v-5.108h0.16l-1.631 5.108h-1.060l-1.616-5.063h0.153v5.063h-0.93z"></path>
<path fill="#ed7711" style="fill: var(--color2, #ed7711)" d="M55.474 27.184c-0.396 0-0.762-0.068-1.098-0.204s-0.628-0.329-0.877-0.581c-0.244-0.252-0.435-0.548-0.572-0.89-0.132-0.347-0.198-0.727-0.198-1.139 0-0.548 0.117-1.029 0.351-1.441 0.234-0.418 0.557-0.742 0.968-0.973 0.417-0.236 0.889-0.355 1.418-0.355 0.539 0 1.014 0.118 1.426 0.355 0.417 0.231 0.742 0.556 0.976 0.973s0.35 0.9 0.35 1.449c0 0.412-0.069 0.79-0.205 1.132-0.133 0.342-0.323 0.639-0.572 0.89-0.244 0.252-0.534 0.445-0.869 0.581s-0.701 0.204-1.098 0.204zM55.467 26.385c0.346 0 0.648-0.085 0.907-0.256 0.264-0.171 0.47-0.407 0.618-0.709 0.147-0.307 0.221-0.659 0.221-1.056 0-0.392-0.074-0.734-0.221-1.026-0.143-0.297-0.346-0.526-0.61-0.687-0.259-0.166-0.564-0.249-0.915-0.249-0.346 0-0.651 0.083-0.915 0.249-0.259 0.161-0.46 0.387-0.602 0.679s-0.214 0.636-0.214 1.034c0 0.402 0.071 0.755 0.214 1.056 0.147 0.302 0.351 0.538 0.61 0.709 0.264 0.171 0.567 0.256 0.907 0.256z"></path>
<path fill="#ed7711" style="fill: var(--color2, #ed7711)" d="M49.524 27.109v-4.655h-1.822v-0.777h4.635v0.777h-1.822v4.655h-0.991z"></path>
<path fill="#ed7711" style="fill: var(--color2, #ed7711)" d="M45.093 27.176c-0.691 0-1.243-0.156-1.654-0.468-0.407-0.317-0.645-0.762-0.717-1.335h0.953c0.046 0.332 0.196 0.591 0.45 0.777 0.254 0.181 0.587 0.272 0.999 0.272 0.341 0 0.6-0.060 0.778-0.181 0.183-0.126 0.274-0.299 0.274-0.521 0-0.196-0.056-0.355-0.168-0.475s-0.3-0.219-0.564-0.294l-0.991-0.294c-0.503-0.151-0.874-0.35-1.113-0.596-0.234-0.246-0.351-0.556-0.351-0.928 0-0.312 0.081-0.584 0.244-0.815s0.391-0.41 0.686-0.536c0.3-0.126 0.648-0.189 1.044-0.189 0.61 0 1.095 0.148 1.456 0.445 0.366 0.292 0.574 0.689 0.625 1.192h-0.953c-0.056-0.302-0.183-0.523-0.381-0.664-0.198-0.146-0.465-0.219-0.801-0.219-0.295 0-0.529 0.058-0.701 0.174s-0.259 0.274-0.259 0.475c0 0.166 0.051 0.307 0.152 0.422 0.107 0.116 0.302 0.216 0.587 0.302l1.006 0.302c0.503 0.146 0.869 0.345 1.098 0.596s0.343 0.571 0.343 0.958c0 0.513-0.18 0.908-0.541 1.185-0.356 0.277-0.856 0.415-1.502 0.415z"></path>
<path fill="#ed7711" style="fill: var(--color2, #ed7711)" d="M39.526 27.184c-0.742 0-1.304-0.209-1.685-0.626s-0.572-1.016-0.572-1.796v-3.086h0.991v3.229c0 0.498 0.112 0.87 0.335 1.117 0.224 0.241 0.536 0.362 0.938 0.362s0.714-0.121 0.938-0.362c0.224-0.246 0.336-0.616 0.336-1.109v-3.237h0.991v3.094c0 0.775-0.193 1.371-0.579 1.788-0.381 0.418-0.945 0.626-1.693 0.626z"></path>
<path fill="#ed7711" style="fill: var(--color2, #ed7711)" d="M23.674 31.51c-2.138 0-4.117-0.382-5.938-1.147-1.791-0.793-3.352-1.883-4.681-3.271-1.329-1.416-2.355-3.073-3.077-4.971-0.722-1.926-1.084-4.036-1.084-6.33s0.361-4.39 1.084-6.288c0.722-1.926 1.734-3.583 3.034-4.971 1.329-1.416 2.889-2.507 4.681-3.271 1.82-0.793 3.8-1.19 5.938-1.19 2.34 0 4.435 0.467 6.284 1.402 1.878 0.935 3.41 2.252 4.594 3.951 1.214 1.699 1.965 3.682 2.254 5.948h-3.554c-0.347-2.521-1.372-4.503-3.077-5.948-1.676-1.473-3.828-2.209-6.458-2.209-2.225 0-4.175 0.538-5.851 1.614-1.676 1.048-2.976 2.521-3.901 4.418-0.925 1.869-1.387 4.050-1.387 6.543s0.462 4.687 1.387 6.585c0.925 1.869 2.225 3.342 3.901 4.418 1.676 1.048 3.612 1.572 5.808 1.572 2.687 0 4.883-0.736 6.588-2.209 1.734-1.473 2.759-3.455 3.077-5.948h3.554c-0.289 2.266-1.040 4.248-2.254 5.948-1.185 1.699-2.716 3.016-4.594 3.951-1.849 0.935-3.959 1.402-6.328 1.402z"></path>
<path fill="#5e340f" style="fill: var(--color3, #5e340f)" d="M11.070 6.359c-0.632 0.954-1.164 2.001-1.593 3.144h-2.806c-0.953 0.359-1.385 0.483-1.943 0.896-1.551 1.305-1.73 2.22-1.73 3.325 0 1.205 0.274 2.171 1.73 3.326 0.559 0.413 0.673 0.583 1.626 0.942l11.595 0.151v-2.247l6.201 3.354-6.201 4.087v-2.247h-11.595c-3.812-0.736-6.353-4.102-6.353-7.365s2.224-6.628 6.353-7.365h4.717z"></path>
</symbol>
<symbol id="icon-procurement" viewBox="0 0 29 32">
<path d="M12.815 31.216h-11.266c-0.428 0-0.772-0.348-0.772-0.776v-28.884c0-0.43 0.346-0.776 0.772-0.776h15.538v4.687c0 0.858 0.695 1.556 1.549 1.556h4.665v9.755c0 0.215 0.174 0.39 0.388 0.39s0.388-0.175 0.388-0.39v-10.145c0-0.050-0.012-0.102-0.030-0.148-0.020-0.047-0.047-0.090-0.085-0.125l-6.213-6.243c-0.035-0.035-0.077-0.067-0.124-0.085-0.047-0.020-0.099-0.032-0.149-0.032h-15.926c-0.854 0-1.549 0.698-1.549 1.556v28.883c0 0.858 0.695 1.556 1.549 1.556l11.266 0.001c0.214 0 0.388-0.175 0.388-0.39s-0.174-0.39-0.388-0.39l-0-0.001zM17.863 5.467v-4.137l4.889 4.913h-4.117c-0.426 0-0.772-0.347-0.772-0.776zM27.541 19.51h-10.813c-0.66 0-1.195 0.538-1.195 1.201v10.088c0 0.663 0.535 1.201 1.195 1.201h10.816c0.66 0 1.195-0.538 1.195-1.201l0.002-10.088c-0.005-0.663-0.54-1.201-1.2-1.201zM23.3 20.291v2.879l-0.991-0.5c-0.055-0.023-0.117-0.038-0.174-0.038s-0.12 0.015-0.174 0.043l-0.991 0.495v-2.879l2.33-0zM27.959 30.796c0 0.23-0.187 0.42-0.419 0.42h-10.813c-0.232 0-0.419-0.187-0.419-0.42v-10.085c0-0.23 0.187-0.421 0.419-0.421h3.465v3.512c0 0.137 0.070 0.262 0.182 0.332s0.256 0.078 0.376 0.015l1.383-0.691 1.379 0.695c0.055 0.023 0.117 0.038 0.174 0.038 0.070 0 0.144-0.020 0.206-0.058 0.112-0.070 0.182-0.195 0.182-0.332v-3.512h3.465c0.229 0 0.419 0.187 0.419 0.421l0 10.085zM16.974 11.819c0.152 0.152 0.152 0.398 0 0.55l-6.213 6.243c-0.077 0.078-0.174 0.117-0.276 0.117s-0.199-0.040-0.276-0.113l-3.107-3.122c-0.152-0.152-0.152-0.398 0-0.55s0.396-0.152 0.548 0l2.835 2.844 5.937-5.966c0.152-0.157 0.4-0.157 0.552-0.005z"></path>
</symbol>
<symbol id="icon-product-lifecycle" viewBox="0 0 32 32">
<path d="M2.817 23.605c0.11 0.188 0.043 0.425-0.145 0.535-0.063 0.035-0.128 0.050-0.195 0.050-0.137 0-0.265-0.070-0.34-0.195-1.396-2.422-2.137-5.186-2.137-7.995 0-4.253 1.701-8.323 4.698-11.317h-2.747c-0.215 0-0.39-0.175-0.39-0.39s0.175-0.39 0.39-0.39h3.902c0.215 0 0.39 0.175 0.39 0.39v3.902c0 0.215-0.175 0.39-0.39 0.39s-0.39-0.175-0.39-0.39v-3.169c-2.982 2.864-4.683 6.826-4.683 10.974 0 2.674 0.703 5.304 2.037 7.605zM23.625 29.175c-2.309 1.338-4.944 2.044-7.625 2.044-4.153 0-8.113-1.701-10.974-4.683h3.169c0.215 0 0.39-0.175 0.39-0.39s-0.175-0.39-0.39-0.39h-3.902c-0.215 0-0.39 0.175-0.39 0.39v3.903c0 0.215 0.175 0.39 0.39 0.39s0.39-0.175 0.39-0.39v-2.744c2.989 2.994 7.060 4.695 11.317 4.695 2.817 0 5.588-0.741 8.015-2.146 0.188-0.11 0.25-0.348 0.14-0.535-0.105-0.188-0.343-0.25-0.531-0.143zM8.375 2.825c2.306-1.338 4.944-2.044 7.625-2.044 4.148 0 8.113 1.701 10.977 4.683h-3.172c-0.215 0-0.39 0.175-0.39 0.39s0.175 0.39 0.39 0.39h3.902c0.215 0 0.39-0.175 0.39-0.39v-3.902c0-0.215-0.175-0.39-0.39-0.39s-0.39 0.175-0.39 0.39v2.744c-2.994-2.994-7.064-4.695-11.317-4.695-2.822 0-5.591 0.745-8.015 2.154-0.188 0.11-0.25 0.348-0.14 0.535 0.105 0.183 0.343 0.245 0.53 0.136zM30.049 27.317h-2.744c2.994-2.989 4.695-7.060 4.695-11.317 0-2.809-0.741-5.573-2.139-7.995-0.11-0.188-0.348-0.25-0.535-0.145-0.188 0.11-0.25 0.348-0.145 0.535 1.335 2.302 2.038 4.932 2.038 7.605 0 4.153-1.701 8.118-4.683 10.977v-3.172c0-0.215-0.175-0.39-0.39-0.39s-0.39 0.175-0.39 0.39v3.902c0 0.215 0.175 0.39 0.39 0.39h3.903c0.215 0 0.39-0.175 0.39-0.39s-0.175-0.39-0.39-0.39zM24.195 10.159v11.688c0 0.866-0.706 1.573-1.573 1.573h-13.244c-0.867-0.005-1.573-0.71-1.573-1.578v-11.683c0-0.866 0.706-1.573 1.573-1.573h13.244c0.867 0 1.573 0.706 1.573 1.573zM14.829 9.366v3.66l0.995-0.5c0.055-0.023 0.117-0.038 0.175-0.038s0.12 0.015 0.175 0.043l0.995 0.495v-3.66l-2.341-0zM23.415 10.159c0-0.438-0.355-0.793-0.793-0.793h-4.671v4.293c0 0.137-0.070 0.262-0.183 0.332-0.063 0.038-0.137 0.058-0.207 0.058-0.058 0-0.12-0.015-0.175-0.043l-1.386-0.691-1.386 0.695c-0.12 0.058-0.265 0.055-0.378-0.015-0.117-0.075-0.188-0.2-0.188-0.337v-4.293h-4.671c-0.437 0-0.793 0.355-0.793 0.793v11.688c0 0.438 0.355 0.793 0.793 0.793h13.248c0.438 0 0.793-0.355 0.793-0.793v-11.688h-0.004z"></path>
</symbol>
<symbol id="icon-supplier" viewBox="0 0 36 32">
<path d="M34.79 13.758c-0.49-0.489-1.168-0.766-1.858-0.766-0.695 0-1.355 0.272-1.858 0.766l-1.558 1.554v-13.567c0-0.961-0.785-1.745-1.75-1.745h-17.334c-0.963 0-1.75 0.783-1.75 1.745v13.83c0 0.411 0.153 0.788 0.39 1.087-1.119 0.308-2.145 0.891-2.986 1.732l-1.975 1.97c-0.543-0.408-1.363-0.372-1.853 0.117l-2.131 2.126c-0.17 0.169-0.17 0.441 0 0.61s0.443 0.169 0.612 0l2.131-2.126c0.203-0.203 0.565-0.203 0.768 0l7.3 7.281c0.212 0.211 0.212 0.555 0 0.766l-2.131 2.125c-0.17 0.169-0.17 0.441 0 0.611 0.086 0.086 0.195 0.125 0.309 0.125s0.222-0.044 0.309-0.125l2.131-2.126c0.504-0.507 0.543-1.299 0.117-1.848l0.621-0.619c0.309-0.308 0.715-0.477 1.155-0.477h9.579c1.762 0 3.467-0.727 4.688-1.992l7.109-7.385c0.99-1.026 0.973-2.672-0.034-3.671v0.001zM20.84 0.866v4.728l-1.467-1.168c-0.078-0.064-0.173-0.095-0.27-0.095-0.095 0-0.192 0.030-0.27 0.095l-1.467 1.168v-4.728h3.472zM9.555 15.576v-13.83c0-0.485 0.395-0.879 0.882-0.879h6.063v5.628c0 0.164 0.095 0.316 0.248 0.389 0.153 0.074 0.331 0.052 0.459-0.052l1.901-1.515 1.901 1.515c0.078 0.061 0.173 0.095 0.27 0.095 0.064 0 0.131-0.014 0.186-0.044 0.153-0.074 0.248-0.225 0.248-0.389v-5.628h6.063c0.487 0 0.882 0.394 0.882 0.879v13.83c0 0.485-0.395 0.879-0.882 0.879l-4.769 0.002c-0.142-0.022-0.287-0.039-0.434-0.039h-11.696c-0.187 0-0.373 0.014-0.559 0.025-0.431-0.056-0.76-0.424-0.76-0.866zM27.506 17.316l-2.292 2.29c-0.044 0.044-0.092 0.083-0.139 0.125 0.064-0.23 0.103-0.472 0.103-0.724 0-0.644-0.239-1.238-0.634-1.693l2.962 0.002zM34.198 16.822l-7.109 7.389c-1.055 1.096-2.54 1.727-4.062 1.727l-9.579 0.002c-0.668 0-1.294 0.26-1.767 0.732l-0.607 0.605-6.332-6.321 1.962-1.956c0.982-0.979 2.248-1.571 3.615-1.698 0.039 0.005 0.078 0.014 0.117 0.014h12.504c0.785 0.164 1.377 0.861 1.377 1.693 0 0.918-0.726 1.667-1.633 1.723-0.070 0.005-0.142 0.008-0.212 0.008h-6.405c-0.239 0-0.434 0.194-0.434 0.433s0.195 0.433 0.434 0.433h6.51c0.103 0 0.209-0.008 0.312-0.022 1.11-0.095 2.145-0.572 2.938-1.368l5.864-5.849c0.339-0.333 0.777-0.516 1.246-0.516 0.46 0 0.916 0.186 1.241 0.516 0.671 0.673 0.681 1.776 0.020 2.455l-0 0z"></path>
</symbol>
</defs>
</svg>
