<svg width="120" height="108" viewBox="0 0 120 108" fill="none" xmlns="http://www.w3.org/2000/svg">
<path d="M117.415 46.433C115.762 44.7836 113.473 43.8477 111.144 43.8477C108.798 43.8477 106.572 44.7666 104.873 46.433L99.6145 51.6777V5.88963C99.6145 2.64794 96.9653 0 93.7095 0H35.2073C31.9571 0 29.3023 2.64238 29.3023 5.88963V52.5675C29.3023 53.9543 29.8173 55.227 30.6183 56.2371C26.8419 57.2758 23.38 59.2447 20.5419 62.0811L13.8758 68.7299C12.0448 67.3545 9.27538 67.4744 7.62173 69.1237L0.429143 76.2976C-0.143048 76.8683 -0.143048 77.7871 0.429143 78.3579C1.00133 78.9287 1.92253 78.9286 2.49484 78.3579L9.68743 71.184C10.3741 70.4992 11.5929 70.4992 12.2794 71.184L36.9178 95.7582C37.6331 96.4716 37.6331 97.6301 36.9178 98.3435L29.7252 105.517C29.153 106.088 29.153 107.007 29.7252 107.578C30.0171 107.869 30.3833 108 30.7666 108C31.15 108 31.5162 107.852 31.808 107.578L39.0006 100.404C40.7001 98.6917 40.8317 96.0208 39.3954 94.166L41.4897 92.0772C42.5311 91.0385 43.9043 90.4678 45.3864 90.4678H77.7152C83.6603 90.4678 89.4166 88.0137 93.5368 83.7448L117.529 58.8214C120.871 55.3572 120.814 49.8042 117.415 46.4313L117.415 46.433ZM70.3344 2.92261V18.8798L65.3849 14.9362C65.1217 14.7193 64.8013 14.6166 64.4751 14.6166C64.1547 14.6166 63.8285 14.7193 63.5653 14.9362L58.6158 18.8798V2.92261H70.3344ZM32.2489 52.5678V5.88992C32.2489 4.25198 33.5822 2.92232 35.2243 2.92232H55.6864V21.9155C55.6864 22.4691 56.0069 22.9827 56.5219 23.2281C57.0368 23.4792 57.6376 23.405 58.0725 23.0512L64.4868 17.9376L70.9012 23.0512C71.1644 23.2566 71.4848 23.3708 71.811 23.3708C72.0284 23.3708 72.2516 23.3251 72.4404 23.2224C72.9554 22.9713 73.2758 22.4634 73.2758 21.9098V2.91662H93.738C95.3802 2.91662 96.7133 4.24637 96.7133 5.88422V52.5621C96.7133 54.2 95.3801 55.5297 93.738 55.5297L77.6424 55.5354C77.1618 55.4612 76.6754 55.4041 76.1776 55.4041H36.702C36.0726 55.4041 35.4432 55.4498 34.8137 55.4897C33.3603 55.3014 32.2489 54.0573 32.2489 52.5678ZM92.8327 58.4403L85.0966 66.1677C84.9479 66.3161 84.7877 66.4474 84.6274 66.5901C84.8449 65.8139 84.9765 64.9979 84.9765 64.1474C84.9765 61.973 84.1697 59.9698 82.8365 58.4346L92.8327 58.4403ZM115.417 56.7739L91.425 81.7133C87.8659 85.4115 82.8534 87.5403 77.7151 87.5403L45.3864 87.546C43.1319 87.546 41.0205 88.4249 39.4241 90.0172L37.3757 92.0602L16.0039 70.7265L22.6241 64.1235C25.9371 60.8191 30.2115 58.8216 34.8234 58.3936C34.955 58.4107 35.0866 58.4392 35.2182 58.4392H77.4184C80.0676 58.9928 82.0647 61.3442 82.0647 64.1521C82.0647 67.251 79.6156 69.7793 76.5544 69.9676C76.3198 69.9847 76.0738 69.9962 75.8392 69.9962H54.2213C53.4145 69.9962 52.7564 70.6525 52.7564 71.4572C52.7564 72.2619 53.4145 72.9182 54.2213 72.9182H76.1936C76.5427 72.9182 76.8975 72.8896 77.2465 72.844C80.9944 72.5244 84.4848 70.915 87.1626 68.2269L106.955 48.4857C108.1 47.3614 109.576 46.7451 111.161 46.7451C112.712 46.7451 114.251 47.3728 115.35 48.4857C117.616 50.7572 117.65 54.4782 115.418 56.7724L115.417 56.7739Z" fill="#434345"/>
</svg>
